<mxfile host="app.diagrams.net" agent="Mozilla/5.0 (Windows NT 10.0; Win64; x64) AppleWebKit/537.36 (KHTML, like Gecko) Chrome/131.0.0.0 Safari/537.36" version="26.0.10">
  <diagram name="Strona-1" id="nNAm1th6dM_G2lgoB58D">
    <mxGraphModel dx="1194" dy="742" grid="1" gridSize="10" guides="1" tooltips="1" connect="1" arrows="1" fold="1" page="1" pageScale="1" pageWidth="827" pageHeight="1169" math="0" shadow="0">
      <root>
        <mxCell id="0" />
        <mxCell id="1" parent="0" />
        <mxCell id="bsObABQ3SvNQ67lsnNod-1" value="User" style="shape=umlActor;verticalLabelPosition=bottom;verticalAlign=top;html=1;outlineConnect=0;" vertex="1" parent="1">
          <mxGeometry x="130" y="260" width="30" height="60" as="geometry" />
        </mxCell>
        <mxCell id="bsObABQ3SvNQ67lsnNod-15" style="edgeStyle=orthogonalEdgeStyle;rounded=0;orthogonalLoop=1;jettySize=auto;html=1;exitX=1;exitY=0.25;exitDx=0;exitDy=0;entryX=0;entryY=0.5;entryDx=0;entryDy=0;startArrow=block;startFill=1;" edge="1" parent="1" source="bsObABQ3SvNQ67lsnNod-3" target="bsObABQ3SvNQ67lsnNod-4">
          <mxGeometry relative="1" as="geometry" />
        </mxCell>
        <mxCell id="bsObABQ3SvNQ67lsnNod-3" value="&lt;b&gt;FRONT END SERVICE&lt;/b&gt;&lt;div style=&quot;&quot;&gt;&lt;b&gt;Web UI&lt;/b&gt;&lt;/div&gt;&lt;div style=&quot;&quot;&gt;&lt;br&gt;&lt;/div&gt;&lt;div style=&quot;text-align: left;&quot;&gt;Main functions:&lt;br&gt;- Files loading&lt;/div&gt;&lt;div style=&quot;text-align: left;&quot;&gt;- Result search&lt;/div&gt;&lt;div style=&quot;text-align: left;&quot;&gt;- Plotting&lt;/div&gt;&lt;div style=&quot;text-align: left;&quot;&gt;&lt;br&gt;&lt;/div&gt;&lt;div style=&quot;text-align: left;&quot;&gt;Tech: Python/Flask&lt;/div&gt;" style="whiteSpace=wrap;html=1;aspect=fixed;verticalAlign=top;align=center;" vertex="1" parent="1">
          <mxGeometry x="250" y="230" width="160" height="160" as="geometry" />
        </mxCell>
        <mxCell id="bsObABQ3SvNQ67lsnNod-12" style="edgeStyle=orthogonalEdgeStyle;rounded=0;orthogonalLoop=1;jettySize=auto;html=1;exitX=1;exitY=0.5;exitDx=0;exitDy=0;startArrow=block;startFill=1;" edge="1" parent="1" source="bsObABQ3SvNQ67lsnNod-4" target="bsObABQ3SvNQ67lsnNod-6">
          <mxGeometry relative="1" as="geometry" />
        </mxCell>
        <mxCell id="bsObABQ3SvNQ67lsnNod-4" value="&lt;b&gt;FILE PROCESSOR&lt;/b&gt;&lt;div style=&quot;&quot;&gt;&lt;b&gt;Dispatcher&lt;/b&gt;&lt;/div&gt;&lt;div style=&quot;&quot;&gt;&lt;b&gt;&lt;br&gt;&lt;/b&gt;&lt;/div&gt;&lt;div style=&quot;text-align: left;&quot;&gt;Main functions:&lt;br&gt;- Understand file contentes&lt;/div&gt;&lt;div style=&quot;text-align: left;&quot;&gt;- Pass to the correct parser&lt;/div&gt;&lt;div style=&quot;text-align: left;&quot;&gt;&lt;br&gt;&lt;/div&gt;&lt;div style=&quot;text-align: left;&quot;&gt;Tech: Python/FastAPI&lt;/div&gt;" style="whiteSpace=wrap;html=1;aspect=fixed;verticalAlign=top;align=center;" vertex="1" parent="1">
          <mxGeometry x="500" y="120" width="160" height="160" as="geometry" />
        </mxCell>
        <mxCell id="bsObABQ3SvNQ67lsnNod-13" style="edgeStyle=orthogonalEdgeStyle;rounded=0;orthogonalLoop=1;jettySize=auto;html=1;exitX=0.5;exitY=0;exitDx=0;exitDy=0;entryX=0;entryY=0.75;entryDx=0;entryDy=0;startArrow=block;startFill=1;" edge="1" parent="1" source="bsObABQ3SvNQ67lsnNod-5" target="bsObABQ3SvNQ67lsnNod-6">
          <mxGeometry relative="1" as="geometry" />
        </mxCell>
        <mxCell id="bsObABQ3SvNQ67lsnNod-14" style="edgeStyle=orthogonalEdgeStyle;rounded=0;orthogonalLoop=1;jettySize=auto;html=1;exitX=0;exitY=0.5;exitDx=0;exitDy=0;entryX=1;entryY=0.75;entryDx=0;entryDy=0;startArrow=block;startFill=1;" edge="1" parent="1" source="bsObABQ3SvNQ67lsnNod-5" target="bsObABQ3SvNQ67lsnNod-3">
          <mxGeometry relative="1" as="geometry" />
        </mxCell>
        <mxCell id="bsObABQ3SvNQ67lsnNod-5" value="&lt;div style=&quot;&quot;&gt;&lt;b&gt;QUARRY&lt;/b&gt;&lt;/div&gt;&lt;div style=&quot;&quot;&gt;&lt;b&gt;Query service&lt;/b&gt;&lt;/div&gt;&lt;div style=&quot;&quot;&gt;&lt;b&gt;&lt;br&gt;&lt;/b&gt;&lt;/div&gt;&lt;div style=&quot;text-align: left;&quot;&gt;Main functions:&lt;br&gt;- Database search&lt;/div&gt;&lt;div style=&quot;text-align: left;&quot;&gt;- Pass DB results to parsers for data processing&lt;/div&gt;&lt;div style=&quot;text-align: left;&quot;&gt;&lt;br&gt;&lt;/div&gt;&lt;div style=&quot;text-align: left;&quot;&gt;Tech: Python/FastAPI&lt;/div&gt;" style="whiteSpace=wrap;html=1;aspect=fixed;verticalAlign=top;align=center;" vertex="1" parent="1">
          <mxGeometry x="500" y="370" width="160" height="160" as="geometry" />
        </mxCell>
        <mxCell id="bsObABQ3SvNQ67lsnNod-10" style="edgeStyle=orthogonalEdgeStyle;rounded=0;orthogonalLoop=1;jettySize=auto;html=1;exitX=1;exitY=0.5;exitDx=0;exitDy=0;startArrow=classic;startFill=1;" edge="1" parent="1" source="bsObABQ3SvNQ67lsnNod-6" target="bsObABQ3SvNQ67lsnNod-9">
          <mxGeometry relative="1" as="geometry" />
        </mxCell>
        <mxCell id="bsObABQ3SvNQ67lsnNod-6" value="&lt;b&gt;PARSER&lt;/b&gt;&lt;div style=&quot;&quot;&gt;&lt;b&gt;Parser / Result processor&lt;/b&gt;&lt;/div&gt;&lt;div style=&quot;&quot;&gt;&lt;b&gt;&lt;br&gt;&lt;/b&gt;&lt;/div&gt;&lt;div style=&quot;text-align: left;&quot;&gt;Main functions:&lt;br&gt;- Parse result file&lt;/div&gt;&lt;div style=&quot;text-align: left;&quot;&gt;- Save to DB&lt;/div&gt;&lt;div style=&quot;text-align: left;&quot;&gt;- Retrieve data from DB&lt;/div&gt;&lt;div style=&quot;text-align: left;&quot;&gt;- Process data&lt;/div&gt;&lt;div style=&quot;text-align: left;&quot;&gt;- Generate plots&lt;/div&gt;&lt;div style=&quot;text-align: left;&quot;&gt;&lt;br&gt;&lt;/div&gt;&lt;div style=&quot;text-align: left;&quot;&gt;&lt;br&gt;&lt;/div&gt;" style="whiteSpace=wrap;html=1;verticalAlign=top;align=center;" vertex="1" parent="1">
          <mxGeometry x="760" y="120" width="160" height="290" as="geometry" />
        </mxCell>
        <mxCell id="bsObABQ3SvNQ67lsnNod-7" value="&lt;b&gt;SINUS PARSER&lt;/b&gt;&lt;div&gt;Tech: Python/FastAPI&lt;/div&gt;" style="rounded=1;whiteSpace=wrap;html=1;verticalAlign=middle;" vertex="1" parent="1">
          <mxGeometry x="780" y="280" width="120" height="50" as="geometry" />
        </mxCell>
        <mxCell id="bsObABQ3SvNQ67lsnNod-8" value="&lt;b&gt;XY PARSER&lt;/b&gt;&lt;div&gt;Tech: GO (not finished)&lt;/div&gt;" style="rounded=1;whiteSpace=wrap;html=1;verticalAlign=middle;" vertex="1" parent="1">
          <mxGeometry x="780" y="340" width="120" height="50" as="geometry" />
        </mxCell>
        <mxCell id="bsObABQ3SvNQ67lsnNod-9" value="&lt;b&gt;DATABASE&lt;/b&gt;&lt;div&gt;&lt;b&gt;&lt;br&gt;&lt;/b&gt;&lt;/div&gt;&lt;div style=&quot;text-align: left;&quot;&gt;NOSQL&lt;/div&gt;&lt;div style=&quot;text-align: left;&quot;&gt;Document-oriented&lt;/div&gt;&lt;div style=&quot;text-align: left;&quot;&gt;Tech: mongodb&lt;/div&gt;" style="shape=cylinder3;whiteSpace=wrap;html=1;boundedLbl=1;backgroundOutline=1;size=15;" vertex="1" parent="1">
          <mxGeometry x="1090" y="210" width="130" height="150" as="geometry" />
        </mxCell>
        <mxCell id="bsObABQ3SvNQ67lsnNod-11" style="edgeStyle=orthogonalEdgeStyle;rounded=0;orthogonalLoop=1;jettySize=auto;html=1;exitX=1;exitY=0.5;exitDx=0;exitDy=0;startArrow=classic;startFill=1;" edge="1" parent="1" source="bsObABQ3SvNQ67lsnNod-5" target="bsObABQ3SvNQ67lsnNod-9">
          <mxGeometry relative="1" as="geometry" />
        </mxCell>
      </root>
    </mxGraphModel>
  </diagram>
</mxfile>
